<?xml version="1.0" standalone="no"?>
<!DOCTYPE svg PUBLIC "-//W3C//DTD SVG 20010904//EN"
 "http://www.w3.org/TR/2001/REC-SVG-20010904/DTD/svg10.dtd">
<svg version="1.0" xmlns="http://www.w3.org/2000/svg"
 width="920.000000pt" height="920.000000pt" viewBox="0 0 920.000000 920.000000"
 preserveAspectRatio="xMidYMid meet">
<metadata>
Created by potrace 1.14, written by Peter Selinger 2001-2017
</metadata>
<g transform="translate(0.000000,920.000000) scale(0.100000,-0.100000)"
fill="#000000" stroke="none">
<path d="M7399 8795 c-1 -5 -2 -21 -3 -35 -6 -59 -18 -165 -21 -184 -2 -12 -7
-43 -10 -71 -9 -65 -11 -76 -25 -160 -11 -72 -14 -88 -26 -140 -3 -16 -8 -39
-9 -50 -2 -11 -4 -20 -5 -20 -1 0 -3 -10 -6 -23 -4 -23 -50 -194 -59 -220 -3
-7 -5 -16 -6 -20 0 -4 -8 -23 -16 -42 -8 -19 -16 -43 -18 -52 -2 -10 -11 -32
-19 -50 -8 -18 -16 -40 -18 -48 -2 -8 -5 -17 -8 -20 -3 -3 -23 -41 -44 -85
-90 -182 -218 -344 -386 -488 -66 -56 -235 -166 -326 -212 -43 -22 -82 -44
-85 -48 -3 -5 -10 -9 -15 -9 -12 -1 -39 -11 -94 -36 -94 -43 -118 -52 -335
-127 -60 -21 -112 -39 -113 -41 -2 -1 2 -19 9 -39 13 -35 19 -39 79 -49 14 -3
48 -10 75 -16 28 -5 61 -13 75 -15 14 -3 32 -8 40 -11 8 -3 53 -17 100 -30 47
-14 89 -29 95 -35 5 -5 16 -9 25 -9 19 0 237 -109 273 -136 14 -10 35 -26 47
-34 40 -26 153 -125 190 -166 64 -71 157 -200 201 -280 49 -88 129 -255 133
-276 1 -7 4 -17 8 -23 6 -9 46 -117 52 -140 2 -5 8 -23 14 -38 7 -16 12 -36
12 -46 0 -10 3 -21 8 -25 4 -4 7 -11 8 -14 2 -15 16 -68 25 -92 5 -14 10 -34
12 -45 2 -11 7 -27 10 -35 5 -13 21 -82 31 -131 2 -8 6 -21 9 -29 4 -8 9 -26
11 -40 3 -14 5 -27 6 -30 2 -3 2 -9 1 -13 -1 -4 6 -35 14 -69 9 -33 18 -76 21
-95 2 -20 7 -40 10 -45 3 -5 7 -22 9 -36 1 -15 6 -45 10 -67 5 -22 9 -51 9
-65 1 -14 4 -27 8 -30 3 -3 8 -25 10 -49 3 -32 8 -45 21 -47 9 -1 17 2 17 7 0
6 8 6 19 -1 23 -12 35 1 37 40 2 41 15 163 20 185 2 11 6 38 8 60 8 61 17 127
22 155 3 14 7 34 9 45 10 66 27 147 40 195 8 30 12 56 10 59 -3 2 0 10 6 18 6
7 8 13 4 13 -4 0 -2 7 5 15 7 8 10 15 7 15 -3 0 5 30 17 68 13 37 23 71 24 75
0 4 10 34 22 65 117 309 259 517 480 705 109 93 342 230 515 304 112 48 132
56 170 69 22 7 65 22 95 34 30 12 60 22 65 24 17 4 120 39 123 42 2 1 -2 19
-9 38 -13 37 -20 41 -79 50 -52 8 -323 77 -335 85 -5 4 -39 18 -75 31 -73 25
-253 117 -258 131 -2 5 -8 9 -13 9 -14 0 -109 71 -109 81 0 5 -6 9 -13 9 -31
0 -287 302 -287 338 0 6 -4 12 -9 14 -13 5 -102 182 -144 284 -51 125 -136
380 -152 453 -10 46 -13 58 -24 96 -6 22 -12 49 -14 60 -2 11 -7 27 -10 35 -3
8 -13 51 -22 95 -9 44 -18 89 -21 100 -33 164 -45 226 -49 250 -4 30 -11 69
-20 115 -5 22 -11 25 -45 25 -22 0 -40 -4 -41 -10z"/>
<path d="M2598 7768 c0 -13 -2 -27 -3 -33 -1 -5 -5 -44 -9 -85 -5 -41 -10 -82
-11 -90 -2 -8 -6 -44 -9 -80 -4 -36 -9 -78 -12 -95 -3 -16 -7 -43 -9 -60 -1
-16 -5 -46 -9 -65 -3 -19 -12 -78 -21 -130 -20 -125 -25 -152 -30 -170 -3 -8
-7 -32 -11 -54 -8 -51 -12 -74 -18 -94 -3 -9 -7 -28 -10 -42 -2 -14 -9 -45
-15 -70 -7 -25 -13 -53 -16 -62 -2 -9 -13 -51 -25 -93 -12 -42 -23 -85 -25
-95 -2 -10 -9 -28 -15 -39 -6 -12 -8 -21 -4 -21 3 0 1 -7 -6 -15 -7 -8 -9 -15
-5 -15 4 0 3 -6 -2 -12 -6 -7 -13 -26 -17 -43 -18 -73 -182 -453 -206 -475 -3
-3 -14 -21 -24 -40 -56 -104 -180 -279 -261 -370 -94 -105 -258 -260 -276
-260 -5 0 -9 -4 -9 -9 0 -5 -34 -33 -75 -63 -42 -29 -85 -61 -97 -70 -12 -10
-25 -18 -29 -18 -4 0 -14 -6 -21 -13 -28 -28 -318 -191 -318 -180 0 5 -4 4 -8
-2 -6 -8 -112 -64 -132 -70 -16 -5 -110 -48 -135 -62 -16 -9 -31 -16 -33 -15
-1 1 -18 -5 -38 -13 -20 -8 -42 -15 -48 -15 -7 0 -16 -4 -22 -9 -5 -4 -81 -34
-169 -65 -88 -32 -167 -60 -175 -63 -8 -3 -20 -7 -26 -8 -37 -8 -144 -49 -144
-55 0 -21 22 -67 33 -68 7 0 23 -3 37 -6 39 -9 72 -15 110 -21 19 -3 43 -8 52
-11 9 -3 25 -7 35 -9 16 -3 206 -50 243 -60 37 -10 199 -65 232 -79 21 -9 38
-13 38 -9 0 5 4 3 8 -3 4 -6 25 -18 47 -26 67 -27 215 -100 221 -109 3 -5 10
-7 15 -4 5 4 9 1 9 -4 0 -6 5 -11 10 -11 28 0 257 -168 354 -259 87 -82 97
-93 141 -146 22 -27 45 -53 50 -59 39 -41 145 -192 145 -206 0 -5 4 -10 9 -10
5 0 13 -9 16 -20 3 -11 12 -26 18 -33 41 -43 180 -332 257 -532 23 -60 45
-119 50 -130 39 -97 164 -522 186 -628 2 -10 6 -27 9 -37 3 -10 7 -27 9 -37 3
-10 14 -56 25 -103 24 -96 29 -120 37 -170 3 -19 9 -46 14 -60 4 -14 14 -54
20 -90 7 -36 14 -74 16 -85 8 -35 24 -119 29 -150 2 -16 7 -41 10 -55 3 -14 8
-38 10 -55 2 -16 7 -41 10 -55 3 -14 7 -38 10 -55 14 -82 13 -81 50 -80 43 1
46 5 51 52 5 63 14 146 19 183 3 19 7 55 10 80 2 25 7 61 9 80 3 19 8 55 11
80 3 25 7 56 10 70 7 39 16 92 21 125 2 17 6 41 9 55 2 13 7 42 10 65 3 22 10
54 15 70 5 17 11 48 14 70 7 56 90 381 121 473 57 168 83 232 151 380 19 40
34 76 34 81 0 5 4 11 9 13 5 1 23 32 41 67 18 36 40 76 50 90 58 86 100 152
100 160 0 5 3 11 8 13 4 2 33 38 65 80 32 42 74 94 93 115 19 21 47 52 62 68
41 45 189 175 257 225 33 25 62 48 65 51 3 3 10 8 15 10 6 2 48 29 95 60 144
96 333 194 595 309 22 9 103 41 180 70 77 28 147 54 155 57 8 4 78 27 155 53
145 48 146 49 131 100 -6 21 -14 26 -43 28 -20 2 -40 5 -45 8 -4 3 -29 9 -56
14 -44 8 -67 12 -124 25 -117 25 -250 61 -295 80 -18 8 -33 12 -33 10 0 -5
-99 30 -107 38 -3 4 -12 7 -20 7 -21 0 -339 148 -367 171 -6 5 -45 31 -87 58
-82 53 -81 52 -184 137 -96 80 -201 188 -280 288 -46 59 -165 230 -165 238 0
4 -13 26 -29 50 -15 24 -55 97 -88 163 -50 101 -79 167 -153 350 -46 114 -149
430 -140 430 1 0 -5 18 -13 40 -9 22 -19 54 -23 70 -10 41 -11 45 -14 48 -1 1
-3 11 -5 22 -2 11 -13 54 -24 95 -12 41 -23 89 -26 105 -3 17 -10 46 -15 65
-8 32 -17 74 -20 92 -1 4 -5 22 -10 39 -5 18 -12 50 -16 73 -3 22 -8 44 -10
48 -6 9 -11 35 -20 88 -3 19 -10 55 -15 80 -12 52 -48 241 -55 285 -3 17 -10
55 -16 85 -12 59 -14 68 -16 88 -1 7 -17 12 -42 12 -34 0 -40 -3 -42 -22z"/>
<path d="M6203 3597 c-3 -5 -7 -25 -9 -45 -8 -95 -19 -170 -39 -287 -22 -124
-25 -138 -32 -165 -10 -38 -10 -40 -13 -42 -1 -2 -3 -11 -5 -21 -14 -72 -97
-291 -121 -318 -8 -9 -12 -18 -9 -21 3 -3 -1 -11 -10 -18 -8 -7 -15 -17 -15
-22 0 -9 -49 -81 -90 -132 -37 -46 -110 -116 -170 -161 -36 -28 -67 -52 -70
-55 -22 -22 -311 -165 -355 -176 -17 -4 -32 -10 -35 -14 -3 -4 -45 -19 -95
-35 -102 -31 -111 -37 -100 -62 4 -10 9 -24 11 -31 3 -19 5 -19 39 -26 65 -11
91 -17 105 -22 8 -3 28 -8 45 -11 25 -4 95 -27 155 -50 8 -4 17 -7 20 -8 21
-6 106 -51 108 -57 2 -4 9 -8 16 -8 30 0 196 -140 256 -216 34 -42 80 -113 80
-122 0 -6 4 -12 8 -14 8 -3 62 -111 106 -210 19 -43 84 -241 89 -272 2 -11 7
-28 10 -36 9 -21 57 -218 63 -260 2 -19 7 -43 10 -52 7 -22 14 -57 19 -93 4
-28 13 -80 20 -115 2 -8 4 -17 4 -20 2 -10 81 -5 82 5 1 6 2 21 3 35 7 69 17
147 20 165 2 11 7 42 10 68 9 63 20 122 46 232 6 28 13 57 15 65 25 109 113
314 174 405 17 25 31 48 31 50 0 14 145 162 200 204 19 14 44 34 54 44 11 9
26 17 33 17 7 0 13 5 13 10 0 6 4 10 9 10 4 0 37 17 71 38 35 20 67 36 72 34
4 -1 8 2 8 8 0 5 9 10 20 10 11 0 20 5 20 10 0 6 6 10 14 10 7 0 38 11 67 24
53 23 89 38 99 41 37 9 177 60 185 66 6 6 5 16 -3 29 -6 11 -12 27 -12 35 0 8
-7 15 -15 15 -8 0 -16 0 -17 1 -2 0 -39 9 -83 20 -44 11 -84 21 -90 22 -5 1
-16 6 -22 10 -7 5 -13 6 -13 2 0 -3 -16 1 -35 9 -19 8 -35 13 -35 10 0 -2 -11
3 -24 12 -14 8 -28 15 -31 14 -3 0 -34 13 -68 31 -310 157 -487 437 -622 985
-20 82 -39 160 -41 174 -3 14 -7 39 -11 55 -7 31 -8 35 -18 95 -23 136 -22
135 -61 135 -20 0 -38 -4 -41 -8z"/>
</g>
</svg>
