<svg width="115" height="107" viewBox="0 0 115 107" fill="none" xmlns="http://www.w3.org/2000/svg">
<path d="M2.5 56C20 49 30.2273 42.6177 33 16C37.9908 42.6177 45.9175 53.5281 63.1081 56.8553C47.0265 62.4007 36.2131 71.2733 33.1631 97.3365C27.3405 66.837 18.027 59.8818 2.5 56Z" fill="#D4764A"/>
<path d="M33 13.6667C30.4504 40.4706 22.8145 49.1602 1 56.0077" stroke="#D4764A"/>
<path d="M1.48489 56.0077C21.4355 59.4331 27.9033 69.6921 33.0001 99.0001" stroke="#D4764A"/>
<path d="M33 99.0001C35.5496 72.1962 43.1856 63.5066 65 56.6591" stroke="#D4764A"/>
<path d="M64.5152 56.6591C44.5646 53.2337 38.0968 42.9747 33 13.6667" stroke="#D4764A"/>
<path d="M72.4375 28.4653C82.5 25.8403 92.125 19.7153 92.5933 1C96.0707 19.6324 101.75 27.5903 113.458 28.9486C102.253 32.8304 95.1251 38.6585 93 56.9028C89.5 35.9028 83.2561 31.1825 72.4375 28.4653Z" fill="#F4B8A9"/>
<path d="M93 1C91.3268 18.5901 86.3157 24.2926 72 28.7863" stroke="#F4B8A9"/>
<path d="M72.3183 28.7863C85.4109 31.0342 89.6554 37.7666 93.0001 57" stroke="#F4B8A9"/>
<path d="M93 57C94.6732 39.4099 99.6843 33.7074 114 29.2137" stroke="#F4B8A9"/>
<path d="M113.682 29.2137C100.589 26.9658 96.3448 20.2334 93.0001 1" stroke="#F4B8A9"/>
<path d="M63.3125 85.618C70.5 83.7431 77.375 79.3681 77.7095 66C80.1933 79.3089 84.25 84.993 92.6127 85.9633C84.6091 88.736 79.5179 92.8989 78 105.931C75.5 90.9305 71.0401 87.5589 63.3125 85.618Z" fill="#7EB9C2"/>
<path d="M78 66C76.8049 78.5643 73.2255 82.6376 63 85.8473" stroke="#7EB9C2"/>
<path d="M63.2274 85.8473C72.5792 87.453 75.611 92.2619 78.0001 106" stroke="#7EB9C2"/>
<path d="M78 106C79.1951 93.4357 82.7745 89.3624 93 86.1527" stroke="#7EB9C2"/>
<path d="M92.7728 86.1527C83.4209 84.547 80.3892 79.7381 78.0001 66" stroke="#7EB9C2"/>
</svg>
